PathFileType	4	(X/Y/Z)	P:\Projects\LMB_grand_challenge_database\project_only\opensim\experimental_data\SixthCompetition/DM_ngait_og7_new.trc
DataRate	CameraRate	NumFrames	NumMarkers	Units	OrigDataRate	OrigDataStartFrame	OrigNumFrames
120	120	5	68	mm	120	196	314
Frame#	Time	Sternum			Neck			R_Shoulder			L_Shoulder			Xiphoid			Thoracic			R_Asis			L_Asis			R_Psis			L_Psis			Lumbar			R_Elbow			R_ElbowMedial			R_ShoulderAnterior			R_ShoulderPosterior			R_Wrist			R_Radius			R_Ulna			L_Elbow			L_ElbowMedial			L_ShoulderAnterior			L_ShoulderPosterior			L_Wrist			L_Ulna			L_Radius			L_Thigh_Superior			L_Thigh_Inferior			L_Thigh_Lateral			L_Knee_Lateral			L_Knee_Medial			L_Patella			L_Shank_Superior			L_Shank_Inferior			L_Shank_Lateral			L_Ankle_Lateral			L_Ankle_Medial			R_Thigh_Superior			R_Thigh_Inferior			R_Thigh_Lateral			R_Knee_Lateral			R_Knee_Medial			R_Patella			R_Shank_Superior			R_Shank_Inferior			R_Shank_Lateral			R_Ankle_Lateral			RankleMedial			R_Heel			R_Toe			R_Midfoot_Medial			R_Midfoot_Lateral			R_Hindfoot			R_Midfoot_Superior			R_ToeMedial			R_ToeLateral			L_Heel			L_Toe			L_Midfoot_Medial			L_Midfoot_Lateral			L_Hindfoot			L_Midfoot_Superior			L_ToeMedial			L_ToeLateral			Oglobal			Sacral			Xglobal			Yglobal			Zglobal			
		X1	Y1	Z1	X2	Y2	Z2	X3	Y3	Z3	X4	Y4	Z4	X5	Y5	Z5	X6	Y6	Z6	X7	Y7	Z7	X8	Y8	Z8	X9	Y9	Z9	X10	Y10	Z10	X11	Y11	Z11	X12	Y12	Z12	X13	Y13	Z13	X14	Y14	Z14	X15	Y15	Z15	X16	Y16	Z16	X17	Y17	Z17	X18	Y18	Z18	X19	Y19	Z19	X20	Y20	Z20	X21	Y21	Z21	X22	Y22	Z22	X23	Y23	Z23	X24	Y24	Z24	X25	Y25	Z25	X26	Y26	Z26	X27	Y27	Z27	X28	Y28	Z28	X29	Y29	Z29	X30	Y30	Z30	X31	Y31	Z31	X32	Y32	Z32	X33	Y33	Z33	X34	Y34	Z34	X35	Y35	Z35	X36	Y36	Z36	X37	Y37	Z37	X38	Y38	Z38	X39	Y39	Z39	X40	Y40	Z40	X41	Y41	Z41	X42	Y42	Z42	X43	Y43	Z43	X44	Y44	Z44	X45	Y45	Z45	X46	Y46	Z46	X47	Y47	Z47	X48	Y48	Z48	X49	Y49	Z49	X50	Y50	Z50	X51	Y51	Z51	X52	Y52	Z52	X53	Y53	Z53	X54	Y54	Z54	X55	Y55	Z55	X56	Y56	Z56	X57	Y57	Z57	X58	Y58	Z58	X59	Y59	Z59	X60	Y60	Z60	X61	Y61	Z61	X62	Y62	Z62	X63	Y63	Z63	X64	Y64	Z64	X65	Y65	Z65	X66	Y66	Z66	X67	Y67	Z67	X68	Y68	Z68	

197	2.391667	656.0599999999999	1435.13	169.791	809.131	1343.87	174.895	732.519	1371.48	345.563	733.702	1387.57	1.55382	823.74	1179.9	178.384	558.931	1244.78	162.398	737.987	949.793	303.7	757.818	962.341	28.816	543.153	992.228	184.525	547.373	991.027	105.38	545.595	1041.17	149.666	634.346	1071.28	445.698	-0	0	0	-0	0	0	-0	0	0	676.139	791.5309999999999	450.663	687.117	801.298	408.724	629.355	800.6079999999999	452.517	855.217	1076.84	-75.8079	-0	0	0	-0	0	0	-0	0	0	1063.98	917.513	-14.6976	1027.64	894.397	-33.6431	1045.41	933.546	25.6777	654.552	786.345	0.08359900000000001	614.65	569.759	54.6128	687.073	646.473	71.14149999999999	-0	0	0	-0	0	0	611.991	464.964	119.723	521.0549999999999	432.677	53.8385	380.548	199.372	62.9174	481.723	293.151	128.021	-0	0	0	-0	0	0	693.103	773.101	327.927	793.59	579.914	288.466	846.033	669.526	245.36	-0	0	0	-0	0	0	-0	0	0	824.487	383.774	300.401	896.112	188.376	288.148	917.774	328.436	221.196	-0	0	0	-0	0	0	862.026	55.4881	235.917	1154.65	102.281	235.304	1085.01	67.94370000000001	181.709	1076.49	59.2454	298.346	966.602	35.0257	287.996	1008.34	139.135	240.167	1122.8	83.3447	192.634	1118.38	78.9563	283.628	264.454	96.01309999999999	122.7	554.9400000000001	47.1175	104.228	478.565	34.1273	161.357	460.371	31.7377	48.3549	352.383	42.7487	61.8525	436.686	125.9	106.639	519.272	32.5453	149.76	512.663	32.7588	53.7087	-0	0	0	545.263	991.628	144.953	-200	0	0	-0	0	200	-0	200	0	
198	2.4	665.83	1434.56	171.678	818.852	1343.34	176.472	742.208	1370.29	347.151	743.309	1387.32	3.47282	834.083	1179.4	179.569	568.966	1243.98	163.787	749.376	949.811	304.523	767.939	961.8	29.2711	553.913	991.4690000000001	186.1	557.822	990.246	106.825	556.085	1040.42	151.042	643.9640000000001	1069.9	446.715	-0	0	0	-0	0	0	-0	0	0	684.846	789.931	450.825	695.679	799.799	408.779	638.276	799.244	452.96	864.765	1076.57	-73.9695	-0	0	0	-0	0	0	-0	0	0	1072.05	915.224	-13.7166	1035.29	892.764	-32.8906	1053.69	931.204	26.8499	664.33	785.6	0.778107	624.381	568.836	54.5499	697.131	645.423	70.2599	-0	0	0	-0	0	0	621.806	462.544	119.06	529.633	432.248	53.822	384.693	201.784	62.5528	487.799	293.549	127.66	-0	0	0	-0	0	0	704.747	772.394	327.882	803.725	579.078	287.886	856.963	668.16	245.089	-0	0	0	-0	0	0	-0	0	0	833.008	382.955	300.433	902.453	186.829	288.827	924.924	326.233	220.689	-0	0	0	-0	0	0	864.259	56.666	235.852	1158.32	92.6533	234.955	1087.5	61.0532	181.446	1078.78	51.9621	298.038	968.25	32.2793	287.552	1013.27	134.535	240.423	1125.54	75.0536	192.303	1121.22	70.72969999999999	283.222	266.676	100.855	122.564	555.231	46.7209	104.055	478.867	32.0124	160.027	459.936	30.1208	47.1371	353.292	45.2735	61.5423	438.067	124.833	105.619	519.529	32.423	149.689	512.586	32.6446	53.3062	-0	0	0	555.867	990.8579999999999	146.463	-200	0	0	-0	0	200	-0	200	0	
199	2.408333	675.6900000000001	1434.23	173.54	828.859	1343.01	177.963	752.304	1369.32	348.919	752.796	1387.35	5.22639	844.399	1179.08	180.64	579.029	1243.47	165.131	760.544	950.088	305.369	778.05	961.347	29.7621	564.582	990.9640000000001	187.487	568.264	989.747	108.234	566.521	1039.94	152.249	653.083	1068.82	447.342	-0	0	0	-0	0	0	-0	0	0	693.778	788.549	451.113	704.09	798.329	408.876	647.143	798.072	453.1	874.223	1076.49	-72.39879999999999	-0	0	0	-0	0	0	-0	0	0	1079.74	912.538	-12.9292	1042.46	891.152	-32.1098	1061.68	928.788	27.6287	674.335	784.924	1.40463	634.651	568.0170000000001	54.2843	707.479	644.441	69.7525	-0	0	0	-0	0	0	632.567	460.721	118.3	538.798	431.916	53.5932	389.144	204.504	62.2159	494.393	294.258	127.309	-0	0	0	-0	0	0	716.378	772.228	327.935	814.0549999999999	578.669	287.372	867.381	666.886	244.832	-0	0	0	-0	0	0	-0	0	0	841.621	382.669	301.568	908.386	185.199	289.61	931.702	324.059	220.401	-0	0	0	-0	0	0	866.383	58.0156	236.123	1161.59	83.6831	235.483	1089.74	54.892	182.114	1080.49	45.6467	298.654	969.2619999999999	29.9585	287.791	1018.1	130.719	241.264	1127.92	67.32210000000001	192.725	1123.72	62.6791	283.695	269.32	106.143	122.127	555.527	46.0996	103.832	479.729	32.1681	159.854	460.631	30.0012	46.9969	354.345	48.08	61.5043	441.076	125.612	104.876	519.804	32.2342	149.588	513.1420000000001	31.8876	53.2909	-0	0	0	566.423	990.355	147.86	-200	0	0	-0	0	200	-0	200	0	
200	2.416667	685.7430000000001	1434.05	175.557	838.856	1343.01	179.651	762.424	1368.53	350.509	762.46	1387.54	6.90851	854.563	1178.95	181.562	589.383	1243.16	166.456	771.295	951.002	306.634	788.289	960.753	30.2939	575.153	990.829	188.666	578.841	989.648	109.501	576.928	1039.87	153.077	662.801	1067.76	448.303	-0	0	0	-0	0	0	-0	0	0	702.936	787.3200000000001	451.344	713.412	796.986	409.074	656.123	797.046	453.23	883.456	1076.57	-70.7714	-0	0	0	-0	0	0	-0	0	0	1086.76	909.7910000000001	-12.5278	1049.23	888.52	-31.5953	1069.12	925.8819999999999	28.1495	684.592	784.456	1.97063	645.645	567.165	54.2151	718.413	643.538	69.0701	-0	0	0	-0	0	0	644.095	458.462	117.304	548.727	431.626	53.3273	394.298	207.5	61.9897	501.759	294.75	126.825	-0	0	0	-0	0	0	727.994	772.6180000000001	328.12	824.134	578.605	287.552	877.707	666.16	244.489	-0	0	0	-0	0	0	-0	0	0	850.771	382.551	302.73	913.813	183.903	290.299	938.769	322.293	220.247	-0	0	0	-0	0	0	867.992	59.1811	235.82	1164.2	75.86799999999999	236.261	1091.41	49.2458	182.88	1081.36	40.7758	299.412	970.3680000000001	28.8735	287.933	1021.82	127.429	241.378	1130.12	60.7335	193.4	1125.54	55.9152	284.526	272.344	112.195	121.884	555.8819999999999	45.4077	103.765	480.688	32.6585	159.754	461.281	30.1551	46.9568	355.733	51.2071	61.4361	444.619	126.726	104.122	520.092	32.0193	149.418	513.675	31.458	53.2021	-0	0	0	576.997	990.2380000000001	149.083	-200	0	0	-0	0	200	-0	200	0	
201	2.425	695.836	1434.02	177.525	848.865	1343.25	181.078	772.54	1368.12	352.345	772.1609999999999	1388.51	8.550520000000001	865.129	1179.1	182.756	599.561	1243.24	167.688	782.218	951.929	307.38	798.375	960.539	30.7674	585.7190000000001	991.0599999999999	189.767	589.222	989.855	110.604	587.365	1040.12	153.958	672.753	1066.92	449.126	-0	0	0	-0	0	0	-0	0	0	712.341	786.3579999999999	451.549	722.543	795.982	409.48	665.6799999999999	796.288	453.766	892.596	1077.06	-69.1186	-0	0	0	-0	0	0	-0	0	0	1093.32	906.83	-12.3793	1055.33	886.317	-31.4351	1076.04	922.949	28.4639	695.3819999999999	783.905	2.93757	657.369	566.316	54.0036	730.037	642.856	68.2912	-0	0	0	-0	0	0	656.7670000000001	456.085	116.303	559.393	431.286	53.0702	399.934	210.919	61.4229	509.36	295.737	126.14	-0	0	0	-0	0	0	739.669	773.45	328.509	834.696	579.168	288.139	888.159	666.241	244.39	-0	0	0	-0	0	0	-0	0	0	859.832	383.22	303.95	919.184	183.178	290.708	945.6660000000001	321.025	220.133	-0	0	0	-0	0	0	868.878	59.9046	235.812	1166.09	69.9149	236.478	1092.14	45.3853	183.27	1081.74	37.5089	299.813	970.607	28.3567	287.821	1024.89	125.49	241.424	1131.63	55.9196	193.493	1126.97	50.7302	284.487	276.049	118.708	121.574	556.537	44.472	103.485	481.899	32.9235	159.447	462.101	30.2581	46.7218	357.512	54.8023	61.3674	448.692	127.697	103.254	520.399	31.7389	149.227	514.229	30.7598	53.0541	-0	0	0	587.47	990.457	150.186	-200	0	0	-0	0	200	-0	200	0	
